<svg width="75" height="97" viewBox="0 0 75 97" fill="none" xmlns="http://www.w3.org/2000/svg">
<rect width="75" height="75" rx="10" fill="#E0F7EF"/>
<g clip-path="url(#clip0)">
<path d="M35.2334 47.1115H14.5091C13.6756 47.1115 13 46.436 13 45.6026V35.565C13 34.9196 13.4104 34.3456 14.0212 34.1369L19.0362 32.4235L21.8991 25.2663C22.3574 24.1205 23.4673 23.3692 24.7014 23.3692H35.2334V47.1115Z" fill="#FAF7F7"/>
<path d="M13 43.4392V45.6016C13 46.435 13.6756 47.1106 14.5091 47.1106H35.2334V43.4392H13Z" fill="#EFE2DD"/>
<path d="M22.3081 32.7778L24.6034 26.6476C24.6623 26.4904 24.8125 26.3862 24.9803 26.3862H31.8128C32.0351 26.3862 32.2153 26.5664 32.2153 26.7887V32.9189C32.2153 33.1412 32.0351 33.3214 31.8128 33.3214H22.685C22.4041 33.3214 22.2097 33.0409 22.3081 32.7778Z" fill="#B3DAFE"/>
<path d="M63 44.0935V26.3872C63 24.7203 61.6487 23.3692 59.9819 23.3692H35.2334V47.1116H59.9819C61.6487 47.1115 63 45.7603 63 44.0935Z" fill="#CBC4CC"/>
<path d="M59.982 23.3682H56.9638C58.6307 23.3682 59.982 24.7194 59.982 26.3862V44.0925C59.982 45.7593 58.6307 47.1105 56.9638 47.1105H59.982C61.6488 47.1105 63 45.7593 63 44.0925V26.3863C63 24.7194 61.6488 23.3682 59.982 23.3682Z" fill="#BAAFB9"/>
<path d="M63 44.0926V43.4392H35.2334V47.1106H59.9819C61.6487 47.1106 63 45.7594 63 44.0926Z" fill="#EFE2DD"/>
<path d="M59.982 44.0926C59.982 45.7594 58.6307 47.1106 56.9638 47.1106H59.982C61.6488 47.1106 63 45.7594 63 44.0926V43.4392H59.982V44.0926Z" fill="#E1D3CE"/>
<path d="M27.6683 49.1555C29.6324 47.1914 29.6324 44.0069 27.6683 42.0428C25.7042 40.0787 22.5197 40.0787 20.5556 42.0428C18.5915 44.0069 18.5915 47.1914 20.5556 49.1555C22.5197 51.1196 25.7042 51.1196 27.6683 49.1555Z" fill="#918291"/>
<path d="M55.6358 47.8797C56.8943 45.4044 55.9079 42.3776 53.4326 41.1191C50.9573 39.8606 47.9305 40.847 46.672 43.3223C45.4136 45.7976 46.4 48.8244 48.8753 50.0829C51.3505 51.3413 54.3773 50.3549 55.6358 47.8797Z" fill="#918291"/>
<path d="M16.0181 39.2636H13V36.3461H16.0181C16.5736 36.3461 17.0241 36.7965 17.0241 37.3521V38.2576C17.0241 38.8132 16.5737 39.2636 16.0181 39.2636Z" fill="#F58A97"/>
<path d="M24.7342 46.0506C24.9734 45.7093 24.8907 45.2387 24.5494 44.9996C24.2081 44.7604 23.7376 44.8431 23.4984 45.1844C23.2592 45.5257 23.342 45.9962 23.6832 46.2354C24.0245 46.4746 24.4951 46.3918 24.7342 46.0506Z" fill="#A79BA7"/>
<path d="M51.7048 46.1355C51.9994 45.8409 51.9994 45.3632 51.7048 45.0686C51.4102 44.774 50.9326 44.774 50.638 45.0686C50.3434 45.3632 50.3434 45.8409 50.638 46.1355C50.9326 46.4301 51.4102 46.4301 51.7048 46.1355Z" fill="#A79BA7"/>
<path d="M56.7048 34.9307L49.8712 31.768V31.0749C50.8802 30.7253 51.5242 29.7064 51.4062 28.6385C51.2893 27.5788 50.4353 26.7249 49.3759 26.6079C48.7213 26.5363 48.0671 26.7445 47.5799 27.181C47.0923 27.6177 46.8127 28.2433 46.8127 28.8975C46.8127 29.3143 47.1505 29.652 47.5672 29.652C47.9839 29.652 48.3217 29.3142 48.3217 28.8975C48.3217 28.6685 48.4158 28.458 48.5866 28.3051C48.7571 28.1523 48.9786 28.0818 49.2102 28.1079C49.5676 28.1473 49.8667 28.4466 49.9061 28.804C49.9483 29.1851 49.726 29.5342 49.3657 29.6528C48.7654 29.8504 48.362 30.4168 48.362 31.0622V31.768L41.5285 34.9307C41.0186 35.1666 40.7468 35.7147 40.8675 36.2636C40.9883 36.8124 41.4652 37.1956 42.0271 37.1956H56.206C56.768 37.1956 57.2449 36.8124 57.3657 36.2636C57.4864 35.7147 57.2147 35.1666 56.7048 34.9307ZM43.4883 35.6865L49.1167 33.0816L54.7451 35.6865H43.4883Z" fill="white"/>
<path d="M32.2154 37.094H29.6018C29.185 37.094 28.8473 36.7563 28.8473 36.3396C28.8473 35.9228 29.1851 35.5851 29.6018 35.5851H32.2154C32.6322 35.5851 32.9698 35.9229 32.9698 36.3396C32.9698 36.7563 32.6321 37.094 32.2154 37.094Z" fill="#EFE2DD"/>
</g>
<path d="M13.3518 92V82.27H19.1898V83.054H14.2198V86.666H18.3498V87.436H14.2198V91.23H19.1898V92H13.3518ZM21.7344 92H20.9084V81.892H21.7344V87.912L22.9244 87.884L25.0804 85H26.0464L23.6524 88.206L26.1584 92H25.1784L22.9384 88.626L21.7344 88.654V92ZM29.5986 85.63C28.4972 85.63 27.9466 86.0267 27.9466 86.82C27.9466 87.184 28.0679 87.4407 28.3106 87.59C28.5532 87.7393 29.0992 87.8887 29.9486 88.038C30.8072 88.178 31.4092 88.374 31.7546 88.626C32.1092 88.878 32.2866 89.3633 32.2866 90.082C32.2866 90.7913 32.0579 91.314 31.6006 91.65C31.1432 91.9767 30.4712 92.14 29.5846 92.14C29.0712 92.14 28.4086 92.0747 27.5966 91.944L27.1906 91.888L27.2466 91.146C28.2919 91.3047 29.0946 91.384 29.6546 91.384C30.2146 91.384 30.6486 91.286 30.9566 91.09C31.2739 90.894 31.4326 90.5627 31.4326 90.096C31.4326 89.6293 31.3019 89.3213 31.0406 89.172C30.7886 89.0133 30.2379 88.8687 29.3886 88.738C28.5486 88.6073 27.9559 88.4207 27.6106 88.178C27.2652 87.9353 27.0926 87.478 27.0926 86.806C27.0926 86.134 27.3306 85.644 27.8066 85.336C28.2826 85.028 28.8706 84.874 29.5706 84.874C30.1306 84.874 30.8306 84.9347 31.6706 85.056L32.0486 85.112L32.0206 85.854C31.0219 85.7047 30.2146 85.63 29.5986 85.63ZM33.9787 95.15V85H34.8047V85.532C35.5327 85.084 36.298 84.86 37.1007 84.86C37.9127 84.86 38.5147 85.1447 38.9067 85.714C39.308 86.2833 39.5087 87.212 39.5087 88.5C39.5087 89.7787 39.2754 90.7073 38.8087 91.286C38.342 91.8553 37.5674 92.14 36.4847 92.14C35.906 92.14 35.346 92.0793 34.8047 91.958V95.15H33.9787ZM36.9327 85.616C36.6247 85.616 36.2934 85.6673 35.9387 85.77C35.584 85.8727 35.3087 85.98 35.1127 86.092L34.8047 86.246V91.23C35.4394 91.342 35.99 91.398 36.4567 91.398C37.2594 91.398 37.824 91.174 38.1507 90.726C38.4774 90.2687 38.6407 89.522 38.6407 88.486C38.6407 87.4407 38.496 86.7033 38.2067 86.274C37.9267 85.8353 37.502 85.616 36.9327 85.616ZM41.3068 92V85H42.1328V86.008C42.4782 85.7653 42.8982 85.532 43.3928 85.308C43.8968 85.084 44.3588 84.9347 44.7788 84.86V85.7C44.3775 85.784 43.9575 85.9147 43.5188 86.092C43.0802 86.26 42.7395 86.4093 42.4968 86.54L42.1328 86.75V92H41.3068ZM50.5072 91.3L50.9272 91.258L50.9552 91.944C49.9006 92.0747 49.0092 92.14 48.2812 92.14C47.2732 92.1307 46.5686 91.832 46.1672 91.244C45.7659 90.656 45.5652 89.7507 45.5652 88.528C45.5652 86.0827 46.5266 84.86 48.4492 84.86C49.3732 84.86 50.0639 85.126 50.5212 85.658C50.9786 86.1807 51.2072 87.0207 51.2072 88.178L51.1792 88.85H46.4192C46.4192 89.7087 46.5639 90.348 46.8532 90.768C47.1519 91.1787 47.6559 91.384 48.3652 91.384C49.0839 91.384 49.7979 91.356 50.5072 91.3ZM46.4192 88.15H50.3672C50.3672 87.226 50.2132 86.568 49.9052 86.176C49.6066 85.784 49.1212 85.588 48.4492 85.588C47.7866 85.588 47.2826 85.7933 46.9372 86.204C46.5919 86.6053 46.4192 87.254 46.4192 88.15ZM55.0419 85.63C53.9406 85.63 53.3899 86.0267 53.3899 86.82C53.3899 87.184 53.5113 87.4407 53.7539 87.59C53.9966 87.7393 54.5426 87.8887 55.3919 88.038C56.2506 88.178 56.8526 88.374 57.1979 88.626C57.5526 88.878 57.7299 89.3633 57.7299 90.082C57.7299 90.7913 57.5013 91.314 57.0439 91.65C56.5866 91.9767 55.9146 92.14 55.0279 92.14C54.5146 92.14 53.8519 92.0747 53.0399 91.944L52.6339 91.888L52.6899 91.146C53.7353 91.3047 54.5379 91.384 55.0979 91.384C55.6579 91.384 56.0919 91.286 56.3999 91.09C56.7173 90.894 56.8759 90.5627 56.8759 90.096C56.8759 89.6293 56.7453 89.3213 56.4839 89.172C56.2319 89.0133 55.6813 88.8687 54.8319 88.738C53.9919 88.6073 53.3993 88.4207 53.0539 88.178C52.7086 87.9353 52.5359 87.478 52.5359 86.806C52.5359 86.134 52.7739 85.644 53.2499 85.336C53.7259 85.028 54.3139 84.874 55.0139 84.874C55.5739 84.874 56.2739 84.9347 57.1139 85.056L57.4919 85.112L57.4639 85.854C56.4653 85.7047 55.6579 85.63 55.0419 85.63ZM61.5361 85.63C60.4347 85.63 59.8841 86.0267 59.8841 86.82C59.8841 87.184 60.0054 87.4407 60.2481 87.59C60.4907 87.7393 61.0367 87.8887 61.8861 88.038C62.7447 88.178 63.3467 88.374 63.6921 88.626C64.0467 88.878 64.2241 89.3633 64.2241 90.082C64.2241 90.7913 63.9954 91.314 63.5381 91.65C63.0807 91.9767 62.4087 92.14 61.5221 92.14C61.0087 92.14 60.3461 92.0747 59.5341 91.944L59.1281 91.888L59.1841 91.146C60.2294 91.3047 61.0321 91.384 61.5921 91.384C62.1521 91.384 62.5861 91.286 62.8941 91.09C63.2114 90.894 63.3701 90.5627 63.3701 90.096C63.3701 89.6293 63.2394 89.3213 62.9781 89.172C62.7261 89.0133 62.1754 88.8687 61.3261 88.738C60.4861 88.6073 59.8934 88.4207 59.5481 88.178C59.2027 87.9353 59.0301 87.478 59.0301 86.806C59.0301 86.134 59.2681 85.644 59.7441 85.336C60.2201 85.028 60.8081 84.874 61.5081 84.874C62.0681 84.874 62.7681 84.9347 63.6081 85.056L63.9861 85.112L63.9581 85.854C62.9594 85.7047 62.1521 85.63 61.5361 85.63Z" fill="black"/>
<defs>
<clipPath id="clip0">
<rect width="50" height="50" fill="white" transform="translate(13 12)"/>
</clipPath>
</defs>
</svg>
