<svg width="75" height="97" viewBox="0 0 75 97" fill="none" xmlns="http://www.w3.org/2000/svg">
<rect width="75" height="75" rx="10" fill="#E0F7EF"/>
<path d="M63 18.25C63 21.7021 60.2178 24.5 56.7861 24.5H16.1064C16.0859 24.5 16.0586 24.5 16.0254 24.499C15.1992 24.4775 14.4541 24.1328 13.9102 23.585C13.7334 23.4072 13.5771 23.208 13.4473 22.9912C13.1631 22.5195 13 21.9668 13 21.375C13 19.6494 14.3906 18.25 16.1064 18.25C16.0791 18.25 16.0518 18.249 16.0234 18.249C15.8389 18.2441 15.6592 18.2226 15.4844 18.1875C15.4834 18.1875 15.4824 18.1875 15.4805 18.1865C14.873 18.0615 14.3311 17.7588 13.9102 17.335C13.7334 17.1572 13.5771 16.958 13.4473 16.7412C13.1631 16.2695 13 15.7168 13 15.125C13 13.3994 14.3906 12 16.1064 12H56.7861C57.1807 12 57.5664 12.0371 57.9395 12.1084C59.1934 12.3438 60.3135 12.959 61.1797 13.8301C62.3047 14.9609 63 16.5234 63 18.25Z" fill="#ACA6D6"/>
<path d="M63 18.25C63 21.7021 60.2178 24.5 56.7861 24.5H16.1064C16.0859 24.5 16.0586 24.5 16.0254 24.499C15.1992 24.4775 14.4541 24.1328 13.9102 23.585C13.7334 23.4072 13.5771 23.208 13.4473 22.9912H53.7686C55.8096 22.9912 57.6221 22 58.7549 20.4707C59.543 19.4072 58.7031 18.0283 57.3789 18.0352C16.1064 18.25 57.3789 18.0352 16.1064 18.25C16.0791 18.25 16.0518 18.249 16.0234 18.249C15.8389 18.2441 15.6592 18.2226 15.4844 18.1875C15.4834 18.1875 15.4824 18.1875 15.4805 18.1865C14.873 18.0615 14.3311 17.7588 13.9102 17.335C13.7334 17.1572 13.5771 16.958 13.4473 16.7412H53.7686C55.374 16.7412 56.8369 16.1279 57.9395 15.1211C58.8174 14.3203 58.8301 12.9258 57.9541 12.1221C57.9512 12.1191 57.9444 12.1133 57.9395 12.1084C59.1934 12.3438 60.3135 12.959 61.1797 13.8301C62.3047 14.9609 63 16.5234 63 18.25Z" fill="#978ECB"/>
<path d="M59.8932 30.75C61.609 30.75 63 32.1491 63 33.875C63 35.6009 61.609 37 59.8932 37H19.2138C15.7819 37 13 34.2018 13 30.75C13 27.2982 15.7819 24.5 19.2138 24.5H59.8932C61.609 24.5 63 25.8991 63 27.625C63 29.3509 61.609 30.75 59.8932 30.75Z" fill="#7ACAA6"/>
<path d="M59.8931 30.75C59.9482 30.75 59.9984 30.7486 60.0442 30.7462C60.0625 30.7453 60.0806 30.7436 60.0988 30.7425C60.1013 30.7423 60.104 30.7422 60.1064 30.7419C61.731 30.6312 63 29.2538 63 27.625C63 25.9114 61.6203 24.4991 59.8931 24.5L59.9818 26.1159C59.9818 27.8418 58.5908 29.2409 56.875 29.2409H16.1956C16.0215 29.2409 14.6729 29.2334 13.1885 29.2188C13.0661 29.7075 13.0004 30.2189 13 30.7457C13.0592 30.7475 13.1181 30.75 13.1775 30.75H18.9971H58.3527C59.24 30.75 59.9771 31.4599 59.9818 32.3472V32.3659C59.9818 34.0918 58.5908 35.4909 56.875 35.4909H16.1956C15.8012 35.4909 15.4158 35.4523 15.0418 35.3816C16.1446 36.3873 17.608 37 19.2138 37H59.8932C61.609 37 63 35.6009 63 33.875C63 32.1491 61.609 30.75 59.8931 30.75Z" fill="#57BE92"/>
<path d="M63 43.25C63 46.7021 60.2178 49.5 56.7861 49.5H16.1064C16.0859 49.5 16.0586 49.5 16.0254 49.499C15.1992 49.4775 14.4541 49.1328 13.9102 48.585C13.7334 48.4072 13.5771 48.208 13.4473 47.9912C13.1631 47.5195 13 46.9668 13 46.375C13 44.6494 14.3906 43.25 16.1064 43.25C16.0791 43.25 16.0518 43.249 16.0234 43.249C15.8389 43.2441 15.6592 43.2226 15.4844 43.1875C15.4834 43.1875 15.4824 43.1875 15.4805 43.1865C14.873 43.0615 14.3311 42.7588 13.9102 42.335C13.7334 42.1572 13.5771 41.958 13.4473 41.7412C13.1631 41.2695 13 40.7168 13 40.125C13 38.3994 14.3906 37 16.1064 37H56.7861C57.1807 37 57.5664 37.0371 57.9395 37.1084C59.1934 37.3437 60.3135 37.959 61.1797 38.8301C62.3047 39.9609 63 41.5234 63 43.25Z" fill="#ACA6D6"/>
<path d="M63 43.25C63 46.7022 60.2178 49.5 56.7861 49.5H16.1064C16.0859 49.5 16.0586 49.5 16.0254 49.499C15.1992 49.4775 14.4541 49.1328 13.9102 48.585C13.7334 48.4072 13.5771 48.208 13.4473 47.9912H53.7686C55.8096 47.9912 57.6221 47 58.7549 45.4707C59.543 44.4072 58.7031 43.0283 57.3789 43.0352C16.1064 43.25 57.3789 43.0352 16.1064 43.25C16.0791 43.25 16.0518 43.249 16.0234 43.249C15.8389 43.2441 15.6592 43.2226 15.4844 43.1875C15.4834 43.1875 15.4824 43.1875 15.4805 43.1865C14.873 43.0615 14.3311 42.7588 13.9102 42.335C13.7334 42.1572 13.5771 41.958 13.4473 41.7412H53.7686C55.374 41.7412 56.8369 41.1279 57.9395 40.1211C58.8174 39.3203 58.8301 37.9258 57.9541 37.1221C57.9512 37.1191 57.9444 37.1133 57.9395 37.1084C59.1934 37.3438 60.3135 37.959 61.1797 38.8301C62.3047 39.9609 63 41.5234 63 43.25Z" fill="#978ECB"/>
<path d="M59.8932 55.75C61.609 55.75 63 57.1491 63 58.875C63 60.6009 61.609 62 59.8932 62H19.2138C15.7819 62 13 59.2018 13 55.75C13 52.2982 15.7819 49.5 19.2138 49.5H59.8932C61.609 49.5 63 50.8991 63 52.625C63 54.3509 61.609 55.75 59.8932 55.75Z" fill="#7ACAA6"/>
<path d="M59.8931 55.75C59.9482 55.75 59.9984 55.7486 60.0442 55.7462C60.0625 55.7453 60.0806 55.7437 60.0988 55.7425C60.1013 55.7423 60.104 55.7422 60.1064 55.7419C61.731 55.6312 63 54.2538 63 52.625C63 50.9114 61.6203 49.4991 59.8931 49.5L59.9818 51.1159C59.9818 52.8418 58.5908 54.2409 56.875 54.2409H16.1956C16.0215 54.2409 14.6729 54.2334 13.1885 54.2188C13.0661 54.7075 13.0004 55.2189 13 55.7457C13.0592 55.7475 13.1181 55.75 13.1775 55.75H18.9971H58.3527C59.24 55.75 59.9771 56.4599 59.9818 57.3472V57.3659C59.9818 59.0918 58.5908 60.4909 56.875 60.4909H16.1956C15.8012 60.4909 15.4158 60.4522 15.0418 60.3816C16.1446 61.3873 17.608 62 19.2138 62H59.8932C61.609 62 63 60.6009 63 58.875C63 57.1491 61.609 55.75 59.8931 55.75Z" fill="#57BE92"/>
<path d="M21.1856 92H20.3176V82.27H21.1856V86.862L22.8656 86.82L25.5676 82.27H26.5616L23.6216 87.156L26.7436 92H25.7076L22.8796 87.604L21.1856 87.632V92ZM32.8543 87.086V90.838C32.8916 91.1833 33.1949 91.3887 33.7643 91.454L33.7223 92.126C33.0036 92.126 32.4763 91.9393 32.1403 91.566C31.2629 91.9487 30.3856 92.14 29.5083 92.14C28.8829 92.14 28.4069 91.9627 28.0803 91.608C27.7536 91.244 27.5903 90.7307 27.5903 90.068C27.5903 89.396 27.7536 88.9013 28.0803 88.584C28.4163 88.2573 28.9389 88.0567 29.6483 87.982L32.0283 87.744V87.086C32.0283 86.5633 31.9116 86.19 31.6783 85.966C31.4543 85.7327 31.1509 85.616 30.7683 85.616C30.1709 85.616 29.3963 85.672 28.4443 85.784L28.0103 85.826L27.9683 85.154C28.9949 84.958 29.8909 84.86 30.6563 84.86C31.4309 84.86 31.9909 85.042 32.3363 85.406C32.6816 85.77 32.8543 86.33 32.8543 87.086ZM28.4583 90.012C28.4583 90.9547 28.8456 91.426 29.6203 91.426C29.9563 91.426 30.3249 91.3887 30.7263 91.314C31.1276 91.23 31.4449 91.146 31.6783 91.062L32.0283 90.936V88.402L29.7463 88.64C29.2889 88.6773 28.9576 88.808 28.7523 89.032C28.5563 89.256 28.4583 89.5827 28.4583 90.012ZM35.0246 92V85H35.8506V86.008C36.1959 85.7653 36.6159 85.532 37.1106 85.308C37.6146 85.084 38.0766 84.9347 38.4966 84.86V85.7C38.0953 85.784 37.6753 85.9147 37.2366 86.092C36.7979 86.26 36.4573 86.4093 36.2146 86.54L35.8506 86.75V92H35.0246ZM39.7688 95.15V85H40.5948V85.532C41.3228 85.084 42.0881 84.86 42.8908 84.86C43.7028 84.86 44.3048 85.1447 44.6968 85.714C45.0981 86.2833 45.2988 87.212 45.2988 88.5C45.2988 89.7787 45.0654 90.7073 44.5988 91.286C44.1321 91.8553 43.3574 92.14 42.2748 92.14C41.6961 92.14 41.1361 92.0793 40.5948 91.958V95.15H39.7688ZM42.7228 85.616C42.4148 85.616 42.0834 85.6673 41.7288 85.77C41.3741 85.8727 41.0988 85.98 40.9028 86.092L40.5948 86.246V91.23C41.2294 91.342 41.7801 91.398 42.2468 91.398C43.0494 91.398 43.6141 91.174 43.9408 90.726C44.2674 90.2687 44.4308 89.522 44.4308 88.486C44.4308 87.4407 44.2861 86.7033 43.9968 86.274C43.7168 85.8353 43.2921 85.616 42.7228 85.616ZM51.7309 91.3L52.1509 91.258L52.1789 91.944C51.1242 92.0747 50.2329 92.14 49.5049 92.14C48.4969 92.1307 47.7922 91.832 47.3909 91.244C46.9895 90.656 46.7889 89.7507 46.7889 88.528C46.7889 86.0827 47.7502 84.86 49.6729 84.86C50.5969 84.86 51.2875 85.126 51.7449 85.658C52.2022 86.1807 52.4309 87.0207 52.4309 88.178L52.4029 88.85H47.6429C47.6429 89.7087 47.7875 90.348 48.0769 90.768C48.3755 91.1787 48.8795 91.384 49.5889 91.384C50.3075 91.384 51.0215 91.356 51.7309 91.3ZM47.6429 88.15H51.5909C51.5909 87.226 51.4369 86.568 51.1289 86.176C50.8302 85.784 50.3449 85.588 49.6729 85.588C49.0102 85.588 48.5062 85.7933 48.1609 86.204C47.8155 86.6053 47.6429 87.254 47.6429 88.15ZM57.6389 85.742H55.3009V89.2C55.3009 90.1053 55.3662 90.698 55.4969 90.978C55.6275 91.258 55.9355 91.398 56.4209 91.398L57.7089 91.3L57.7649 92.014C57.1489 92.1073 56.6775 92.154 56.3509 92.154C55.6415 92.154 55.1469 91.9813 54.8669 91.636C54.5962 91.2813 54.4609 90.6093 54.4609 89.62V85.742H53.4249V85H54.4609V82.802H55.3009V85H57.6389V85.742Z" fill="black"/>
</svg>
