<svg width="83" height="97" viewBox="0 0 83 97" fill="none" xmlns="http://www.w3.org/2000/svg">
<g filter="url(#filter0_d)">
<rect x="4" width="75" height="75" rx="10" fill="#E0F7EF"/>
</g>
<g clip-path="url(#clip0)" filter="url(#filter1_d)">
<path d="M31.6086 31.3482H52.3915V35.7505H31.6086V31.3482Z" fill="#918291"/>
<path d="M63.91 52.5752H20.0914C18.1694 52.5752 16.7139 50.8375 17.0489 48.9432L19.0446 37.6592C19.3059 36.182 20.5885 35.1055 22.0871 35.1055H61.9142C63.4129 35.1055 64.6954 36.1819 64.9568 37.6592L66.9526 48.9432C67.2876 50.8376 65.832 52.5752 63.91 52.5752Z" fill="#ACA6D6"/>
<path d="M66.9518 48.9442L64.956 37.6601C64.6948 36.1829 63.4122 35.1065 61.9136 35.1065H61.5535C61.7419 35.4217 61.8768 35.7745 61.944 36.1541C62.0911 36.9707 62.2381 37.7873 62.3851 38.6039C63.5544 45.0979 58.5635 51.0679 51.9651 51.0683C40.4561 51.0689 28.9472 51.0695 17.4382 51.0701C17.9734 51.9639 18.9499 52.5762 20.0907 52.5762H63.9094C65.8312 52.5761 67.2869 50.8385 66.9518 48.9442Z" fill="#978ECB"/>
<path d="M20.2503 48.9912L22.0971 38.5496C22.1309 38.3578 22.2977 38.218 22.4926 38.218L61.5075 38.2181C61.7023 38.2181 61.869 38.3579 61.903 38.5497L63.7498 48.9912C63.7932 49.2372 63.6041 49.4628 63.3544 49.4628H20.6457C20.396 49.4628 20.2067 49.2372 20.2503 48.9912Z" fill="#FAF7F7"/>
<path d="M62.4757 41.7881C62.0809 44.9842 60.2363 47.7949 57.5747 49.4628H63.3543C63.6041 49.4628 63.7933 49.2372 63.7497 48.9912L62.4757 41.7881Z" fill="#F3EAE6"/>
<path d="M38.2343 47.2864C38.0479 47.2864 37.8596 47.2639 37.6727 47.2178C36.6737 46.9717 35.976 46.0656 35.976 45.0144V42.6272C35.976 41.5759 36.6737 40.6698 37.6727 40.4239C38.364 40.2533 39.0762 40.4035 39.6269 40.8352C40.1779 41.2669 40.4939 41.9158 40.4939 42.6155V45.0264C40.4939 45.7261 40.1779 46.375 39.6269 46.8067C39.2252 47.1216 38.7372 47.2864 38.2343 47.2864ZM38.235 41.8609C38.1725 41.8609 38.1051 41.8685 38.0329 41.8862C37.7136 41.9648 37.482 42.2765 37.482 42.6272V45.0144C37.482 45.3651 37.7136 45.6769 38.0329 45.7555C38.3596 45.8357 38.59 45.706 38.6981 45.6212C38.8824 45.4769 38.988 45.26 38.988 45.0263V42.6154C38.988 42.3817 38.8823 42.1648 38.6981 42.0205C38.6138 41.9545 38.4555 41.8609 38.235 41.8609Z" fill="#918291"/>
<path d="M45.7643 47.2868C45.578 47.2868 45.3897 47.2643 45.2028 47.2182C44.2038 46.9723 43.506 46.0661 43.506 45.0147V42.6276C43.506 41.5763 44.2038 40.6702 45.2028 40.4243C45.8941 40.2538 46.6064 40.4039 47.1571 40.8355C47.708 41.2673 48.024 41.9162 48.024 42.6159V45.0268C48.024 45.7265 47.708 46.3754 47.1571 46.8071C46.7553 47.122 46.2673 47.2868 45.7643 47.2868ZM45.765 41.8613C45.7025 41.8613 45.635 41.8688 45.5628 41.8866C45.2435 41.9652 45.0119 42.2768 45.0119 42.6276V45.0147C45.0119 45.3655 45.2435 45.6772 45.5628 45.7559C45.8897 45.8361 46.12 45.7063 46.2281 45.6216C46.4124 45.4772 46.518 45.2603 46.518 45.0267V42.6158C46.518 42.3821 46.4123 42.1652 46.2281 42.0209C46.1439 41.9549 45.9855 41.8613 45.765 41.8613Z" fill="#918291"/>
<path d="M42.4758 46.9822C42.7699 46.6882 42.7699 46.2114 42.4758 45.9174C42.1818 45.6234 41.7051 45.6234 41.4111 45.9174C41.117 46.2114 41.117 46.6882 41.4111 46.9822C41.7051 47.2762 42.1818 47.2762 42.4758 46.9822Z" fill="#918291"/>
<path d="M31.6086 31.9932H52.3915V35.1056H31.6086V31.9932Z" fill="#918291"/>
<path d="M49.3795 31.9932H52.3915V35.1056H49.3795V31.9932Z" fill="#7A6D79"/>
<path d="M55.9778 31.9932H28.0221C27.4521 31.9932 26.9901 31.5312 26.9901 30.9611V27.8095H57.0098V30.9611C57.0098 31.5311 56.5478 31.9932 55.9778 31.9932Z" fill="#ACA6D6"/>
<path d="M53.9979 28.8807V30.961C53.9979 31.5311 53.5358 31.9931 52.9658 31.9931H55.9778C56.5479 31.9931 57.0099 31.5311 57.0099 30.961V28.8807H53.9979Z" fill="#978ECB"/>
<path d="M65.3913 21.0294L65.308 21.423L64.2679 26.3646C63.9576 27.8325 62.6685 28.8807 61.1755 28.8807H22.8245C21.3315 28.8807 20.0424 27.8325 19.7321 26.3646L18.6077 21.0937L65.3913 21.0294Z" fill="#F3EAE6"/>
<path d="M65.308 21.423L64.2678 26.3647C63.9576 27.8325 62.6684 28.8807 61.1755 28.8807H58.1635C59.6564 28.8807 60.9456 27.8325 61.2557 26.3647L62.3039 21.423H65.308Z" fill="#E1D3CE"/>
<path d="M65.3651 18.2119H18.6349C17.7598 18.2119 17.0504 18.9307 17.0504 19.8174C17.0504 20.7041 17.7598 21.4229 18.6349 21.4229H65.3651C66.2401 21.4229 66.9495 20.704 66.9495 19.8174C66.9495 18.9308 66.2401 18.2119 65.3651 18.2119Z" fill="#ACA6D6"/>
<path d="M65.3651 18.2129H62.3531C63.2282 18.2129 63.9375 18.9317 63.9375 19.8184C63.9375 20.7051 63.2281 21.4239 62.3531 21.4239H65.3651C66.2401 21.4239 66.9495 20.7051 66.9495 19.8184C66.9495 18.9317 66.2401 18.2129 65.3651 18.2129Z" fill="#978ECB"/>
<path d="M28.6676 55.7881H22.9031C22.3324 55.7881 21.8697 55.3254 21.8697 54.7547V52.5752H29.701V54.7546C29.701 55.3254 29.2383 55.7881 28.6676 55.7881Z" fill="#918291"/>
<path d="M26.689 52.5752V54.7546C26.689 55.3253 26.2263 55.788 25.6556 55.788H28.6676C29.2383 55.788 29.701 55.3253 29.701 54.7546V52.5752H26.689Z" fill="#7A6D79"/>
<path d="M61.0969 55.7881H55.3324C54.7617 55.7881 54.299 55.3254 54.299 54.7547V52.5752H62.1303V54.7546C62.1303 55.3254 61.6677 55.7881 61.0969 55.7881Z" fill="#918291"/>
<path d="M59.1183 52.5752V54.7546C59.1183 55.3253 58.6556 55.788 58.0849 55.788H61.0969C61.6676 55.788 62.1303 55.3253 62.1303 54.7546V52.5752H59.1183Z" fill="#7A6D79"/>
</g>
<path d="M26.2169 92H25.3489V82.27H26.2169V86.862L27.8969 86.82L30.5989 82.27H31.5929L28.6529 87.156L31.7749 92H30.7389L27.9109 87.604L26.2169 87.632V92ZM33.0695 92V85H33.8955V92H33.0695ZM33.0695 83.25V82.2H33.8955V83.25H33.0695ZM36.0793 92V81.892H36.9053V92H36.0793ZM38.7912 88.486C38.7912 87.17 39.0105 86.2367 39.4492 85.686C39.8972 85.1353 40.6532 84.86 41.7172 84.86C42.7905 84.86 43.5465 85.1353 43.9852 85.686C44.4332 86.2367 44.6572 87.17 44.6572 88.486C44.6572 89.802 44.4518 90.74 44.0412 91.3C43.6398 91.86 42.8698 92.14 41.7312 92.14C40.5925 92.14 39.8178 91.86 39.4072 91.3C38.9965 90.74 38.7912 89.802 38.7912 88.486ZM39.6592 88.472C39.6592 89.5733 39.7852 90.3387 40.0372 90.768C40.2985 91.188 40.8585 91.398 41.7172 91.398C42.5852 91.398 43.1498 91.1833 43.4112 90.754C43.6725 90.3247 43.8032 89.564 43.8032 88.472C43.8032 87.3707 43.6538 86.6193 43.3552 86.218C43.0658 85.8073 42.5245 85.602 41.7312 85.602C40.9378 85.602 40.3918 85.8027 40.0932 86.204C39.8038 86.6053 39.6592 87.3613 39.6592 88.472ZM51.284 87.086V90.838C51.3213 91.1833 51.6246 91.3887 52.194 91.454L52.152 92.126C51.4333 92.126 50.906 91.9393 50.57 91.566C49.6926 91.9487 48.8153 92.14 47.938 92.14C47.3126 92.14 46.8366 91.9627 46.51 91.608C46.1833 91.244 46.02 90.7307 46.02 90.068C46.02 89.396 46.1833 88.9013 46.51 88.584C46.846 88.2573 47.3686 88.0567 48.078 87.982L50.458 87.744V87.086C50.458 86.5633 50.3413 86.19 50.108 85.966C49.884 85.7327 49.5806 85.616 49.198 85.616C48.6006 85.616 47.826 85.672 46.874 85.784L46.44 85.826L46.398 85.154C47.4246 84.958 48.3206 84.86 49.086 84.86C49.8606 84.86 50.4206 85.042 50.766 85.406C51.1113 85.77 51.284 86.33 51.284 87.086ZM46.888 90.012C46.888 90.9547 47.2753 91.426 48.05 91.426C48.386 91.426 48.7546 91.3887 49.156 91.314C49.5573 91.23 49.8746 91.146 50.108 91.062L50.458 90.936V88.402L48.176 88.64C47.7186 88.6773 47.3873 88.808 47.182 89.032C46.986 89.256 46.888 89.5827 46.888 90.012ZM54.2803 92H53.4543V85H54.2803V85.518C55.0643 85.0793 55.825 84.86 56.5623 84.86C57.4956 84.86 58.1163 85.1073 58.4243 85.602C58.7416 86.0967 58.9003 87.002 58.9003 88.318V92H58.0603V88.36C58.0603 87.2867 57.9576 86.5633 57.7523 86.19C57.547 85.8073 57.1083 85.616 56.4363 85.616C56.1096 85.616 55.7643 85.6673 55.4003 85.77C55.0456 85.8633 54.7703 85.9613 54.5743 86.064L54.2803 86.204V92Z" fill="black"/>
<defs>
<filter id="filter0_d" x="0" y="0" width="83" height="83" filterUnits="userSpaceOnUse" color-interpolation-filters="sRGB">
<feFlood flood-opacity="0" result="BackgroundImageFix"/>
<feColorMatrix in="SourceAlpha" type="matrix" values="0 0 0 0 0 0 0 0 0 0 0 0 0 0 0 0 0 0 127 0"/>
<feOffset dy="4"/>
<feGaussianBlur stdDeviation="2"/>
<feColorMatrix type="matrix" values="0 0 0 0 0 0 0 0 0 0 0 0 0 0 0 0 0 0 0.25 0"/>
<feBlend mode="normal" in2="BackgroundImageFix" result="effect1_dropShadow"/>
<feBlend mode="normal" in="SourceGraphic" in2="effect1_dropShadow" result="shape"/>
</filter>
<filter id="filter1_d" x="13" y="12" width="58" height="58" filterUnits="userSpaceOnUse" color-interpolation-filters="sRGB">
<feFlood flood-opacity="0" result="BackgroundImageFix"/>
<feColorMatrix in="SourceAlpha" type="matrix" values="0 0 0 0 0 0 0 0 0 0 0 0 0 0 0 0 0 0 127 0"/>
<feOffset dy="4"/>
<feGaussianBlur stdDeviation="2"/>
<feColorMatrix type="matrix" values="0 0 0 0 0 0 0 0 0 0 0 0 0 0 0 0 0 0 0.25 0"/>
<feBlend mode="normal" in2="BackgroundImageFix" result="effect1_dropShadow"/>
<feBlend mode="normal" in="SourceGraphic" in2="effect1_dropShadow" result="shape"/>
</filter>
<clipPath id="clip0">
<rect width="50" height="50" fill="white" transform="translate(17 12)"/>
</clipPath>
</defs>
</svg>
