<svg width="75" height="97" viewBox="0 0 75 97" fill="none" xmlns="http://www.w3.org/2000/svg">
<rect width="75" height="75" rx="10" fill="#E0F7EF"/>
<g clip-path="url(#clip0)">
<path d="M51.1948 26.8739L60.7057 36.1098C61.7179 37.0927 61.4523 38.7814 60.1873 39.4061L47.777 45.5355L49.9723 27.3066C50.0439 26.7121 50.7653 26.4567 51.1948 26.8739Z" fill="#978ECB"/>
<path d="M24.8052 26.8739L15.2943 36.1098C14.2822 37.0927 14.5478 38.7813 15.8127 39.406L28.223 45.5354L26.0278 27.3066C25.9562 26.7121 25.2348 26.4567 24.8052 26.8739Z" fill="#978ECB"/>
<path d="M38.1021 32.6002C41.5022 32.6002 44.2585 29.8439 44.2585 26.4438V23.9025L43.7457 24.1577L41.6947 25.1783C39.432 26.3043 36.7723 26.3043 34.5096 25.1783L31.9488 23.9041L31.9458 23.9025V26.4438C31.9458 29.8439 34.702 32.6002 38.1021 32.6002Z" fill="#978ECB"/>
<path d="M47.8069 26.4881L38.8089 19.937V17.544C40.1983 17.4646 41.3042 16.3108 41.3042 14.904V14.7181C41.3042 13.2198 40.0835 12.001 38.583 12.001H38.4269C36.9264 12.001 35.7057 13.2198 35.7057 14.7181C35.7057 15.1363 36.0447 15.4753 36.4629 15.4753C36.8812 15.4753 37.2202 15.1363 37.2202 14.7181C37.2202 14.0549 37.7615 13.5155 38.4268 13.5155H38.5829C39.2483 13.5155 39.7896 14.0549 39.7896 14.7181V14.904C39.7896 15.527 39.281 16.0338 38.6559 16.0338C37.9051 16.0338 37.2943 16.6441 37.2943 17.3941V19.8681L29.1061 26.0308C28.7719 26.2823 28.7049 26.7571 28.9564 27.0912C29.2077 27.4253 29.6826 27.4925 30.0167 27.2408L38.0075 21.2269L46.9155 27.7124C47.0499 27.8104 47.2059 27.8575 47.3606 27.8575C47.5945 27.8575 47.8252 27.7495 47.9734 27.5459C48.2195 27.2078 48.145 26.7342 47.8069 26.4881Z" fill="#E19974"/>
<path d="M50.2644 28.3234L51.7789 43.4963V59.9806C51.7789 61.0962 50.8742 61.9999 49.7596 61.9999H26.2403C25.1257 61.9999 24.221 61.0962 24.221 59.9806V28.3376C24.221 27.5097 24.7268 26.7655 25.4962 26.4605L31.946 23.902V26.4434C31.946 29.8439 34.7024 32.6003 38.1019 32.6003C41.5025 32.6003 44.2589 29.8439 44.2589 26.4434V23.902L50.5208 26.4535C51.2811 26.7635 50.2644 27.5026 50.2644 28.3234Z" fill="#ACA6D6"/>
<path d="M50.5209 26.4536L48.3107 25.553C48.589 25.9029 48.75 26.3426 48.75 26.809V39.7436C48.75 51.1991 39.4636 60.4855 28.0081 60.4855H24.2873C24.5119 61.3562 25.3003 62.0001 26.2404 62.0001H49.7597C50.8749 62.0001 51.779 61.096 51.779 59.9807V28.3234C51.7789 27.5026 51.2811 26.7635 50.5209 26.4536Z" fill="#978ECB"/>
<path d="M38.288 42.6518L36.1717 43.5614C36.0161 43.6283 35.8977 43.7601 35.8476 43.9219L35.1668 46.1226C35.0079 46.6362 34.2953 46.674 34.083 46.1801L33.1732 44.0638C33.1063 43.9082 32.9746 43.7897 32.8128 43.7396L30.6121 43.0589C30.0984 42.9 30.0606 42.1874 30.5546 41.975L32.6709 41.0653C32.8265 40.9984 32.9449 40.8667 32.995 40.7049L33.6758 38.5042C33.8347 37.9905 34.5473 37.9527 34.7596 38.4467L35.6693 40.563C35.7362 40.7185 35.868 40.8371 36.0298 40.8871L38.2305 41.5679C38.7442 41.7268 38.782 42.4393 38.288 42.6518Z" fill="white"/>
<path d="M43.5791 53.1861L41.8826 53.9154C41.7579 53.969 41.6629 54.0746 41.6227 54.2043L41.077 55.9685C40.9497 56.3803 40.3784 56.4105 40.2082 56.0146L39.4789 54.3181C39.4253 54.1934 39.3197 54.0983 39.19 54.0582L37.4259 53.5125C37.014 53.3852 36.9838 52.8139 37.3798 52.6437L39.0763 51.9144C39.201 51.8607 39.296 51.7552 39.336 51.6254L39.8817 49.8612C40.0091 49.4494 40.5803 49.4191 40.7506 49.8151L41.4799 51.5116C41.5335 51.6363 41.639 51.7313 41.7688 51.7714L43.533 52.3171C43.9447 52.4446 43.9751 53.0159 43.5791 53.1861Z" fill="white"/>
</g>
<path d="M21.2396 82.886C19.737 82.886 18.9856 83.46 18.9856 84.608C18.9856 85.28 19.1536 85.7327 19.4896 85.966C19.835 86.1993 20.5023 86.414 21.4916 86.61C22.4903 86.806 23.1996 87.0767 23.6196 87.422C24.049 87.7673 24.2636 88.346 24.2636 89.158C24.2636 90.2033 24.0023 90.9593 23.4796 91.426C22.9663 91.8833 22.2103 92.112 21.2116 92.112C20.4836 92.112 19.639 92.0467 18.6776 91.916L18.1736 91.846L18.2716 91.104C19.5503 91.2627 20.5396 91.342 21.2396 91.342C21.9396 91.342 22.4716 91.174 22.8356 90.838C23.1996 90.4927 23.3816 89.9933 23.3816 89.34C23.3816 88.6773 23.2183 88.2293 22.8916 87.996C22.5743 87.7533 22.061 87.5667 21.3516 87.436C20.6516 87.3053 20.1383 87.1887 19.8116 87.086C19.485 86.974 19.177 86.82 18.8876 86.624C18.6076 86.4187 18.407 86.162 18.2856 85.854C18.1643 85.5367 18.1036 85.14 18.1036 84.664C18.1036 82.9653 19.1303 82.116 21.1836 82.116C21.7996 82.116 22.6023 82.1813 23.5916 82.312L24.0536 82.382L23.9836 83.124C22.6956 82.9653 21.781 82.886 21.2396 82.886ZM30.8299 87.086V90.838C30.8672 91.1833 31.1705 91.3887 31.7399 91.454L31.6979 92.126C30.9792 92.126 30.4519 91.9393 30.1159 91.566C29.2385 91.9487 28.3612 92.14 27.4839 92.14C26.8585 92.14 26.3825 91.9627 26.0559 91.608C25.7292 91.244 25.5659 90.7307 25.5659 90.068C25.5659 89.396 25.7292 88.9013 26.0559 88.584C26.3919 88.2573 26.9145 88.0567 27.6239 87.982L30.0039 87.744V87.086C30.0039 86.5633 29.8872 86.19 29.6539 85.966C29.4299 85.7327 29.1265 85.616 28.7439 85.616C28.1465 85.616 27.3719 85.672 26.4199 85.784L25.9859 85.826L25.9439 85.154C26.9705 84.958 27.8665 84.86 28.6319 84.86C29.4065 84.86 29.9665 85.042 30.3119 85.406C30.6572 85.77 30.8299 86.33 30.8299 87.086ZM26.4339 90.012C26.4339 90.9547 26.8212 91.426 27.5959 91.426C27.9319 91.426 28.3005 91.3887 28.7019 91.314C29.1032 91.23 29.4205 91.146 29.6539 91.062L30.0039 90.936V88.402L27.7219 88.64C27.2645 88.6773 26.9332 88.808 26.7279 89.032C26.5319 89.256 26.4339 89.5827 26.4339 90.012ZM36.5422 85.742H34.2042V89.2C34.2042 90.1053 34.2695 90.698 34.4002 90.978C34.5309 91.258 34.8389 91.398 35.3242 91.398L36.6122 91.3L36.6682 92.014C36.0522 92.1073 35.5809 92.154 35.2542 92.154C34.5449 92.154 34.0502 91.9813 33.7702 91.636C33.4995 91.2813 33.3642 90.6093 33.3642 89.62V85.742H32.3282V85H33.3642V82.802H34.2042V85H36.5422V85.742ZM42.2777 85H43.1037V92H42.2777V91.482C41.559 91.9207 40.8404 92.14 40.1217 92.14C39.1697 92.14 38.5397 91.8973 38.2317 91.412C37.933 90.9267 37.7837 90.0073 37.7837 88.654V85H38.6097V88.64C38.6097 89.7227 38.7077 90.4507 38.9037 90.824C39.109 91.1973 39.5477 91.384 40.2197 91.384C40.5464 91.384 40.8824 91.3373 41.2277 91.244C41.573 91.1413 41.8344 91.0387 42.0117 90.936L42.2777 90.796V85ZM50.0252 87.086V90.838C50.0625 91.1833 50.3658 91.3887 50.9352 91.454L50.8932 92.126C50.1745 92.126 49.6472 91.9393 49.3112 91.566C48.4338 91.9487 47.5565 92.14 46.6792 92.14C46.0538 92.14 45.5778 91.9627 45.2512 91.608C44.9245 91.244 44.7612 90.7307 44.7612 90.068C44.7612 89.396 44.9245 88.9013 45.2512 88.584C45.5872 88.2573 46.1098 88.0567 46.8192 87.982L49.1992 87.744V87.086C49.1992 86.5633 49.0825 86.19 48.8492 85.966C48.6252 85.7327 48.3218 85.616 47.9392 85.616C47.3418 85.616 46.5672 85.672 45.6152 85.784L45.1812 85.826L45.1392 85.154C46.1658 84.958 47.0618 84.86 47.8272 84.86C48.6018 84.86 49.1618 85.042 49.5072 85.406C49.8525 85.77 50.0252 86.33 50.0252 87.086ZM45.6292 90.012C45.6292 90.9547 46.0165 91.426 46.7912 91.426C47.1272 91.426 47.4958 91.3887 47.8972 91.314C48.2985 91.23 48.6158 91.146 48.8492 91.062L49.1992 90.936V88.402L46.9172 88.64C46.4598 88.6773 46.1285 88.808 45.9232 89.032C45.7272 89.256 45.6292 89.5827 45.6292 90.012ZM53.0215 92H52.1955V85H53.0215V85.518C53.8055 85.0793 54.5662 84.86 55.3035 84.86C56.2368 84.86 56.8575 85.1073 57.1655 85.602C57.4828 86.0967 57.6415 87.002 57.6415 88.318V92H56.8015V88.36C56.8015 87.2867 56.6988 86.5633 56.4935 86.19C56.2882 85.8073 55.8495 85.616 55.1775 85.616C54.8508 85.616 54.5055 85.6673 54.1415 85.77C53.7868 85.8633 53.5115 85.9613 53.3155 86.064L53.0215 86.204V92Z" fill="black"/>
<defs>
<clipPath id="clip0">
<rect width="50" height="50" fill="white" transform="translate(13 12)"/>
</clipPath>
</defs>
</svg>
