<svg width="75" height="97" viewBox="0 0 75 97" fill="none" xmlns="http://www.w3.org/2000/svg">
<rect width="75" height="75" rx="10" fill="#E0F7EF"/>
<path d="M57.7944 35.9431C57.6268 35.9431 57.4583 35.8867 57.3194 35.7712C57.0038 35.5087 56.9608 35.0399 57.2233 34.7244L60.665 30.5872C61.2121 29.9297 61.5133 29.0965 61.5133 28.2411C61.5133 26.2185 59.8677 24.5729 57.845 24.5729H49.8202C46.3539 24.5729 43.5338 21.7527 43.5338 18.2864C43.5338 14.8201 46.3539 12 49.8202 12H62.2566C62.6672 12 63 12.3328 63 12.7433C63 13.1537 62.6672 13.4865 62.2566 13.4865H49.8202C47.1735 13.4865 45.0204 15.6397 45.0204 18.2863C45.0204 20.9329 47.1735 23.0861 49.8202 23.0861H57.845C60.6875 23.0861 62.9999 25.3986 62.9999 28.241C62.9999 29.443 62.5766 30.6139 61.8078 31.5378L58.3661 35.675C58.2192 35.8519 58.0076 35.9431 57.7944 35.9431Z" fill="#A79BA7"/>
<path d="M56.276 38.8967L54.174 36.7953L56.6732 34.2972C57.2536 33.7171 58.1942 33.7171 58.7745 34.2973C59.3551 34.8776 59.3551 35.8189 58.7744 36.3993L56.276 38.8967Z" fill="#B5ADB6"/>
<path d="M27.1191 47.2022L25.0178 49.3041L22.5196 46.8049C21.9396 46.2245 21.9396 45.2839 22.5197 44.7036C23.1001 44.1231 24.0414 44.123 24.6218 44.7037L27.1191 47.2022Z" fill="#B5ADB6"/>
<path d="M48.2393 52.8489H40.0693V49.9955C40.0693 49.5606 40.4219 49.2082 40.8566 49.2082H47.452C47.8868 49.2082 48.2393 49.5607 48.2393 49.9955V52.8489Z" fill="#B5ADB6"/>
<path d="M62.2228 53.6392C60.6181 48.1317 59.0135 42.6242 57.4088 37.1168C57.0957 36.0424 56.0742 35.3345 54.9577 35.4159C49.5689 35.8093 42.4284 37.0832 34.8932 40.7375C31.9629 42.1586 29.4199 43.7229 27.247 45.2645C22.9585 48.5022 19.3723 52.5765 16.7054 57.2404L15.9531 58.5561L14.9574 60.0427L56.8865 58.5561L57.4594 57.3306C58.1411 55.8719 59.6061 54.9398 61.2167 54.9398C61.8969 54.9398 62.3939 54.2974 62.2228 53.6392ZM53.8847 51.6329L39.1916 52.5987C37.1319 52.7341 35.3867 51.1006 35.3867 49.0371V49.037C35.3867 47.7399 36.0895 46.5441 37.2246 45.9157C38.8905 44.9935 40.7784 44.0676 42.8853 43.2138C46.0272 41.9406 48.9566 41.1111 51.5091 40.5629C52.3454 40.3833 53.1732 40.8982 53.3754 41.7292L55.3117 49.6899C55.5428 50.6401 54.8606 51.5688 53.8847 51.6329Z" fill="#FEE97D"/>
<path d="M62.2228 53.6392C60.6181 48.1316 59.0135 42.6242 57.4088 37.1168C57.0966 36.0452 56.0792 35.3342 54.9661 35.4153C54.7727 35.4294 54.5763 35.445 54.3783 35.4614C54.399 35.5167 54.4189 35.5727 54.4356 35.6302C56.0402 41.1376 57.6448 46.6451 59.2495 52.1525C59.4204 52.8099 58.9249 53.4515 58.2459 53.4531C56.6675 53.4569 55.2111 54.2926 54.5428 55.7226C54.1587 56.5443 53.3336 57.0694 52.4265 57.0694H16.806C16.7728 57.1267 16.7382 57.183 16.7053 57.2404L15.953 58.5561L14.9573 60.0427L56.8864 58.5561L57.516 57.2092C58.2091 55.8295 59.6407 54.9436 61.2192 54.9397C61.8981 54.9381 62.3936 54.2965 62.2228 53.6392Z" fill="#FEDF30"/>
<path d="M57.1481 62H13C13 60.098 14.5419 58.5561 16.4439 58.5561H57.1481C58.0992 58.5561 58.8701 59.3271 58.8701 60.278C58.8701 61.229 58.0992 62 57.1481 62Z" fill="#B5ADB6"/>
<path d="M57.1482 58.5561H54.1749C55.126 58.5561 55.8969 59.327 55.8969 60.278C55.8969 61.2291 55.126 62 54.1749 62H57.1482C58.0992 62 58.8701 61.2291 58.8701 60.278C58.8701 59.327 58.0992 58.5561 57.1482 58.5561Z" fill="#A79BA7"/>
<path d="M38.4757 52.574C38.4755 52.574 38.4754 52.5739 38.4753 52.5739C36.7431 52.3403 35.3867 50.8562 35.3867 49.0373V49.0372C35.3867 47.74 36.0895 46.5443 37.2246 45.9159C38.8905 44.9936 40.7784 44.0678 42.8853 43.214C46.0272 41.9408 48.9565 41.1113 51.5091 40.5631C51.9135 40.4762 52.3152 40.5529 52.6459 40.7481C52.6463 40.748 52.6468 40.7479 52.6472 40.7478C51.4045 39.1182 50.3745 38.9353 49.9015 38.9239C49.6616 38.9182 49.2865 38.9726 48.5358 39.0765C46.4932 39.3593 45.4406 39.4869 39.912 41.7273C37.8052 42.5812 35.9174 43.507 34.2514 44.4293C33.1162 45.0577 32.4135 46.2534 32.4135 47.5506C32.5214 48.1837 32.7843 49.157 33.4894 50.1038C35.1969 52.3969 38.0248 52.5559 38.4757 52.574Z" fill="#FEDF30"/>
<path d="M8.27285 82.886C6.77018 82.886 6.01885 83.46 6.01885 84.608C6.01885 85.28 6.18685 85.7327 6.52285 85.966C6.86818 86.1993 7.53552 86.414 8.52485 86.61C9.52352 86.806 10.2329 87.0767 10.6529 87.422C11.0822 87.7673 11.2969 88.346 11.2969 89.158C11.2969 90.2033 11.0355 90.9593 10.5129 91.426C9.99952 91.8833 9.24352 92.112 8.24485 92.112C7.51685 92.112 6.67219 92.0467 5.71085 91.916L5.20685 91.846L5.30485 91.104C6.58352 91.2627 7.57285 91.342 8.27285 91.342C8.97285 91.342 9.50485 91.174 9.86885 90.838C10.2329 90.4927 10.4149 89.9933 10.4149 89.34C10.4149 88.6773 10.2515 88.2293 9.92485 87.996C9.60752 87.7533 9.09419 87.5667 8.38485 87.436C7.68485 87.3053 7.17152 87.1887 6.84485 87.086C6.51819 86.974 6.21019 86.82 5.92085 86.624C5.64085 86.4187 5.44018 86.162 5.31885 85.854C5.19752 85.5367 5.13685 85.14 5.13685 84.664C5.13685 82.9653 6.16352 82.116 8.21685 82.116C8.83285 82.116 9.63552 82.1813 10.6249 82.312L11.0869 82.382L11.0169 83.124C9.72885 82.9653 8.81418 82.886 8.27285 82.886ZM17.6811 91.3L18.1011 91.258L18.1291 91.944C17.0744 92.0747 16.1831 92.14 15.4551 92.14C14.4471 92.1307 13.7424 91.832 13.3411 91.244C12.9397 90.656 12.7391 89.7507 12.7391 88.528C12.7391 86.0827 13.7004 84.86 15.6231 84.86C16.5471 84.86 17.2377 85.126 17.6951 85.658C18.1524 86.1807 18.3811 87.0207 18.3811 88.178L18.3531 88.85H13.5931C13.5931 89.7087 13.7377 90.348 14.0271 90.768C14.3257 91.1787 14.8297 91.384 15.5391 91.384C16.2577 91.384 16.9717 91.356 17.6811 91.3ZM13.5931 88.15H17.5411C17.5411 87.226 17.3871 86.568 17.0791 86.176C16.7804 85.784 16.2951 85.588 15.6231 85.588C14.9604 85.588 14.4564 85.7933 14.1111 86.204C13.7657 86.6053 13.5931 87.254 13.5931 88.15ZM23.5891 85.742H21.2511V89.2C21.2511 90.1053 21.3164 90.698 21.4471 90.978C21.5777 91.258 21.8857 91.398 22.3711 91.398L23.6591 91.3L23.7151 92.014C23.0991 92.1073 22.6277 92.154 22.3011 92.154C21.5917 92.154 21.0971 91.9813 20.8171 91.636C20.5464 91.2813 20.4111 90.6093 20.4111 89.62V85.742H19.3751V85H20.4111V82.802H21.2511V85H23.5891V85.742ZM24.9006 92V85H25.7266V86.008C26.0719 85.7653 26.4919 85.532 26.9866 85.308C27.4906 85.084 27.9526 84.9347 28.3726 84.86V85.7C27.9713 85.784 27.5513 85.9147 27.1126 86.092C26.6739 86.26 26.3333 86.4093 26.0906 86.54L25.7266 86.75V92H24.9006ZM29.6447 92V85H30.4707V92H29.6447ZM29.6447 83.25V82.2H30.4707V83.25H29.6447ZM33.3965 92H32.5705V81.892H33.3965V87.912L34.5865 87.884L36.7425 85H37.7085L35.3145 88.206L37.8205 92H36.8405L34.6005 88.626L33.3965 88.654V92ZM43.908 87.086V90.838C43.9453 91.1833 44.2487 91.3887 44.818 91.454L44.776 92.126C44.0573 92.126 43.53 91.9393 43.194 91.566C42.3167 91.9487 41.4393 92.14 40.562 92.14C39.9367 92.14 39.4607 91.9627 39.134 91.608C38.8073 91.244 38.644 90.7307 38.644 90.068C38.644 89.396 38.8073 88.9013 39.134 88.584C39.47 88.2573 39.9927 88.0567 40.702 87.982L43.082 87.744V87.086C43.082 86.5633 42.9653 86.19 42.732 85.966C42.508 85.7327 42.2047 85.616 41.822 85.616C41.2247 85.616 40.45 85.672 39.498 85.784L39.064 85.826L39.022 85.154C40.0487 84.958 40.9447 84.86 41.71 84.86C42.4847 84.86 43.0447 85.042 43.39 85.406C43.7353 85.77 43.908 86.33 43.908 87.086ZM39.512 90.012C39.512 90.9547 39.8993 91.426 40.674 91.426C41.01 91.426 41.3787 91.3887 41.78 91.314C42.1813 91.23 42.4987 91.146 42.732 91.062L43.082 90.936V88.402L40.8 88.64C40.3427 88.6773 40.0113 88.808 39.806 89.032C39.61 89.256 39.512 89.5827 39.512 90.012ZM51.9545 82.886C50.4518 82.886 49.7005 83.46 49.7005 84.608C49.7005 85.28 49.8685 85.7327 50.2045 85.966C50.5498 86.1993 51.2172 86.414 52.2065 86.61C53.2052 86.806 53.9145 87.0767 54.3345 87.422C54.7638 87.7673 54.9785 88.346 54.9785 89.158C54.9785 90.2033 54.7172 90.9593 54.1945 91.426C53.6812 91.8833 52.9252 92.112 51.9265 92.112C51.1985 92.112 50.3538 92.0467 49.3925 91.916L48.8885 91.846L48.9865 91.104C50.2652 91.2627 51.2545 91.342 51.9545 91.342C52.6545 91.342 53.1865 91.174 53.5505 90.838C53.9145 90.4927 54.0965 89.9933 54.0965 89.34C54.0965 88.6773 53.9332 88.2293 53.6065 87.996C53.2892 87.7533 52.7758 87.5667 52.0665 87.436C51.3665 87.3053 50.8532 87.1887 50.5265 87.086C50.1998 86.974 49.8918 86.82 49.6025 86.624C49.3225 86.4187 49.1218 86.162 49.0005 85.854C48.8792 85.5367 48.8185 85.14 48.8185 84.664C48.8185 82.9653 49.8452 82.116 51.8985 82.116C52.5145 82.116 53.3172 82.1813 54.3065 82.312L54.7685 82.382L54.6985 83.124C53.4105 82.9653 52.4958 82.886 51.9545 82.886ZM61.5447 87.086V90.838C61.582 91.1833 61.8854 91.3887 62.4547 91.454L62.4127 92.126C61.694 92.126 61.1667 91.9393 60.8307 91.566C59.9534 91.9487 59.076 92.14 58.1987 92.14C57.5734 92.14 57.0974 91.9627 56.7707 91.608C56.444 91.244 56.2807 90.7307 56.2807 90.068C56.2807 89.396 56.444 88.9013 56.7707 88.584C57.1067 88.2573 57.6294 88.0567 58.3387 87.982L60.7187 87.744V87.086C60.7187 86.5633 60.602 86.19 60.3687 85.966C60.1447 85.7327 59.8414 85.616 59.4587 85.616C58.8614 85.616 58.0867 85.672 57.1347 85.784L56.7007 85.826L56.6587 85.154C57.6854 84.958 58.5814 84.86 59.3467 84.86C60.1214 84.86 60.6814 85.042 61.0267 85.406C61.372 85.77 61.5447 86.33 61.5447 87.086ZM57.1487 90.012C57.1487 90.9547 57.536 91.426 58.3107 91.426C58.6467 91.426 59.0154 91.3887 59.4167 91.314C59.818 91.23 60.1354 91.146 60.3687 91.062L60.7187 90.936V88.402L58.4367 88.64C57.9794 88.6773 57.648 88.808 57.4427 89.032C57.2467 89.256 57.1487 89.5827 57.1487 90.012ZM63.715 91.86V85H64.555V91.874C64.555 92.6953 64.401 93.3207 64.093 93.75C63.7944 94.1793 63.183 94.6273 62.259 95.094L61.923 94.422C62.679 93.9927 63.1644 93.6287 63.379 93.33C63.603 93.0313 63.715 92.5413 63.715 91.86ZM63.715 83.25V82.2H64.555V83.25H63.715ZM71.4568 87.086V90.838C71.4942 91.1833 71.7975 91.3887 72.3668 91.454L72.3248 92.126C71.6062 92.126 71.0788 91.9393 70.7428 91.566C69.8655 91.9487 68.9882 92.14 68.1108 92.14C67.4855 92.14 67.0095 91.9627 66.6828 91.608C66.3562 91.244 66.1928 90.7307 66.1928 90.068C66.1928 89.396 66.3562 88.9013 66.6828 88.584C67.0188 88.2573 67.5415 88.0567 68.2508 87.982L70.6308 87.744V87.086C70.6308 86.5633 70.5142 86.19 70.2808 85.966C70.0568 85.7327 69.7535 85.616 69.3708 85.616C68.7735 85.616 67.9988 85.672 67.0468 85.784L66.6128 85.826L66.5708 85.154C67.5975 84.958 68.4935 84.86 69.2588 84.86C70.0335 84.86 70.5935 85.042 70.9388 85.406C71.2842 85.77 71.4568 86.33 71.4568 87.086ZM67.0608 90.012C67.0608 90.9547 67.4482 91.426 68.2228 91.426C68.5588 91.426 68.9275 91.3887 69.3288 91.314C69.7302 91.23 70.0475 91.146 70.2808 91.062L70.6308 90.936V88.402L68.3488 88.64C67.8915 88.6773 67.5602 88.808 67.3548 89.032C67.1588 89.256 67.0608 89.5827 67.0608 90.012Z" fill="black"/>
</svg>
