<svg width="75" height="97" viewBox="0 0 75 97" fill="none" xmlns="http://www.w3.org/2000/svg">
<rect width="75" height="75" rx="10" fill="#E0F7EF"/>
<g clip-path="url(#clip0)">
<path d="M46.5318 26.6613C46.1213 26.6613 45.7885 26.3285 45.7885 25.9181V21.0344C45.7885 20.6238 46.1212 20.291 46.5318 20.291C46.9424 20.291 47.2751 20.6238 47.2751 21.0344V25.9181C47.2751 26.3286 46.9424 26.6613 46.5318 26.6613Z" fill="#F07281"/>
<path d="M54.7858 26.6613C54.3753 26.6613 54.0425 26.3285 54.0425 25.9181V21.0344C54.0425 20.6238 54.3752 20.291 54.7858 20.291C55.1964 20.291 55.5291 20.6238 55.5291 21.0344V25.9181C55.5291 26.3286 55.1964 26.6613 54.7858 26.6613Z" fill="#F07281"/>
<path d="M58.4885 62.0003C59.0523 62.0003 59.4442 61.4454 59.2599 60.914C57.3808 55.5 57.2591 51.2144 57.5497 48.1851C57.989 43.6055 59.6177 39.3175 57.1669 35.9894C56.2736 34.7766 55.1781 34.1523 55.0614 32.6548C54.8863 30.4099 57.1695 29.5228 56.9756 27.224C56.86 25.8546 55.8767 24.1182 54.2958 23.8894C52.8957 23.6866 51.3198 24.7088 50.659 26.4618C49.9983 24.7087 48.4223 23.6865 47.0222 23.8894C45.4413 24.1183 44.458 25.8547 44.3424 27.224C44.1485 29.5228 46.4316 30.4099 46.2565 32.6548C46.1397 34.1523 45.0442 34.7766 44.151 35.9894C41.7001 39.3175 43.3289 43.6055 43.7682 48.1851C44.0587 51.2144 43.9371 55.5 42.0579 60.914C41.8735 61.4454 42.2655 62.0003 42.8293 62.0003H58.4885Z" fill="#F58A97"/>
<path d="M59.2597 60.9137C57.3807 55.4997 57.259 51.2141 57.5496 48.1848C57.9889 43.6052 59.6176 39.3172 57.1668 35.9892C56.2735 34.7763 55.178 34.1521 55.0613 32.6544C54.8862 30.4095 57.1693 29.5224 56.9754 27.2236C56.8598 25.8542 55.8765 24.1179 54.2956 23.889C53.6646 23.7976 52.9981 23.9557 52.3955 24.3167C53.3421 24.9665 53.9155 26.198 54.0021 27.2236C54.1961 29.5224 51.913 30.4095 52.0881 32.6544C52.2048 34.1521 53.3003 34.7762 54.1935 35.9892C56.6444 39.3172 55.0156 43.6052 54.5764 48.1848C54.2858 51.2141 54.4074 55.4997 56.2865 60.9137C56.471 61.445 56.0789 62 55.5151 62H58.4884C59.0521 62 59.4442 61.4451 59.2597 60.9137Z" fill="#F07281"/>
<path d="M46.2225 31.9111C46.2624 32.1432 46.277 32.3891 46.2563 32.6544C46.235 32.9285 46.1806 33.1731 46.1008 33.3978H55.2168C55.1371 33.1732 55.0826 32.9286 55.0613 32.6544C55.0406 32.3891 55.0553 32.1432 55.0951 31.9111H46.2225Z" fill="#F07281"/>
<path d="M59.9049 22.0717L51.3343 19.0137V17.5563C52.7389 17.4877 53.8603 16.3271 53.8603 14.9104V14.7227C53.8603 13.2214 52.635 12 51.1288 12H50.9708C49.4647 12 48.2393 13.2214 48.2393 14.7227C48.2393 15.1332 48.572 15.4659 48.9825 15.4659C49.3931 15.4659 49.7259 15.1331 49.7259 14.7227C49.7259 14.0411 50.2844 13.4866 50.9708 13.4866H51.1288C51.8152 13.4866 52.3736 14.0411 52.3736 14.7227V14.9104C52.3736 15.5514 51.8484 16.0729 51.2027 16.0729C50.4556 16.0729 49.8477 16.6795 49.8477 17.4252V19.0621L41.4128 22.0718C41.0262 22.2098 40.8245 22.6351 40.9625 23.0217C41.1004 23.4083 41.5257 23.6096 41.9124 23.472L50.6588 20.3512L59.4053 23.472C59.4878 23.5015 59.5722 23.5154 59.6551 23.5154C59.9605 23.5154 60.2466 23.3258 60.3551 23.0217C60.4932 22.635 60.2916 22.2097 59.9049 22.0717Z" fill="#E19974"/>
<path d="M21.214 26.6613C20.8035 26.6613 20.4708 26.3285 20.4708 25.9181V21.0344C20.4708 20.6238 20.8035 20.291 21.214 20.291C21.6246 20.291 21.9574 20.6238 21.9574 21.0344V25.9181C21.9574 26.3286 21.6246 26.6613 21.214 26.6613Z" fill="#978ECB"/>
<path d="M29.468 26.6613C29.0575 26.6613 28.7247 26.3285 28.7247 25.9181V21.0344C28.7247 20.6238 29.0574 20.291 29.468 20.291C29.8786 20.291 30.2113 20.6238 30.2113 21.0344V25.9181C30.2114 26.3286 29.8787 26.6613 29.468 26.6613Z" fill="#978ECB"/>
<path d="M33.1707 62.0003C33.7344 62.0003 34.1264 61.4454 33.9421 60.914C32.063 55.5 31.9413 51.2144 32.2319 48.1851C32.6712 43.6055 34.2999 39.3175 31.8491 35.9894C30.9558 34.7766 29.8603 34.1523 29.7436 32.6548C29.5685 30.4099 31.8517 29.5228 31.6578 27.224C31.5422 25.8546 30.5589 24.1182 28.978 23.8894C27.5779 23.6866 26.0019 24.7088 25.3412 26.4618C24.6804 24.7087 23.1045 23.6865 21.7044 23.8894C20.1235 24.1183 19.1402 25.8547 19.0246 27.224C18.8306 29.5228 21.1137 30.4099 20.9386 32.6548C20.8219 34.1523 19.7263 34.7766 18.8332 35.9894C16.3823 39.3175 18.0111 43.6055 18.4504 48.1851C18.7409 51.2144 18.6193 55.5 16.7401 60.914C16.5556 61.4454 16.9477 62.0003 17.5115 62.0003H33.1707Z" fill="#ACA6D6"/>
<path d="M33.9421 60.9137C32.063 55.4997 31.9413 51.2141 32.2319 48.1848C32.6712 43.6052 34.2999 39.3172 31.8491 35.9892C30.9558 34.7763 29.8603 34.1521 29.7436 32.6544C29.5685 30.4095 31.8516 29.5224 31.6577 27.2236C31.5421 25.8542 30.5588 24.1179 28.9779 23.889C28.347 23.7976 27.6805 23.9557 27.0778 24.3167C28.0244 24.9665 28.5978 26.198 28.6845 27.2236C28.8784 29.5224 26.5953 30.4095 26.7704 32.6544C26.8871 34.1521 27.9826 34.7762 28.8759 35.9892C31.3267 39.3172 29.6979 43.6052 29.2587 48.1848C28.9681 51.2141 29.0897 55.4997 30.9688 60.9137C31.1533 61.445 30.7612 62 30.1974 62H33.1707C33.7345 62 34.1264 61.4451 33.9421 60.9137Z" fill="#978ECB"/>
<path d="M20.9049 31.9111C20.9447 32.1432 20.9594 32.3891 20.9386 32.6544C20.9173 32.9285 20.8629 33.1731 20.7831 33.3978H29.899C29.8193 33.1732 29.7648 32.9286 29.7435 32.6544C29.7228 32.3891 29.7374 32.1432 29.7773 31.9111H20.9049Z" fill="#978ECB"/>
<path d="M34.5872 22.0717L26.0165 19.0137V17.5563C27.4211 17.4877 28.5425 16.3271 28.5425 14.9104V14.7227C28.5425 13.2214 27.3172 12 25.811 12H25.653C24.1469 12 22.9215 13.2214 22.9215 14.7227C22.9215 15.1332 23.2542 15.4659 23.6647 15.4659C24.0753 15.4659 24.4081 15.1331 24.4081 14.7227C24.4081 14.0411 24.9665 13.4866 25.653 13.4866H25.811C26.4974 13.4866 27.0558 14.0411 27.0558 14.7227V14.9104C27.0558 15.5514 26.5306 16.0729 25.8849 16.0729C25.1378 16.0729 24.5299 16.6795 24.5299 17.4252V19.0621L16.095 22.0718C15.7084 22.2098 15.5067 22.6351 15.6448 23.0217C15.7827 23.4083 16.208 23.6096 16.5946 23.472L25.341 20.3512L34.0875 23.472C34.17 23.5015 34.2544 23.5154 34.3373 23.5154C34.6427 23.5154 34.9288 23.3258 35.0373 23.0217C35.1754 22.635 34.9738 22.2097 34.5872 22.0717Z" fill="#E19974"/>
</g>
<path d="M34.9743 82.27H35.8563L33.2523 92H31.1383L28.5203 82.27H29.4163L31.7823 91.23H32.6083L34.9743 82.27ZM37.4543 92V82.27H38.3223V92H37.4543ZM44.3189 88.612H41.6309V92H40.7629V82.27H44.3189C45.3549 82.27 46.1156 82.522 46.6009 83.026C47.0956 83.53 47.3429 84.3047 47.3429 85.35C47.3429 87.5247 46.3349 88.612 44.3189 88.612ZM41.6309 87.842H44.3189C45.7376 87.842 46.4469 87.0113 46.4469 85.35C46.4469 84.5567 46.2789 83.9733 45.9429 83.6C45.6069 83.2267 45.0656 83.04 44.3189 83.04H41.6309V87.842Z" fill="black"/>
<defs>
<clipPath id="clip0">
<rect width="50" height="50" fill="white" transform="translate(13 12)"/>
</clipPath>
</defs>
</svg>
